<?xml version="1.0" standalone="no"?>
<!DOCTYPE svg PUBLIC "-//W3C//DTD SVG 20010904//EN"
 "http://www.w3.org/TR/2001/REC-SVG-20010904/DTD/svg10.dtd">
<svg version="1.0" xmlns="http://www.w3.org/2000/svg"
 width="497.000000pt" height="501.000000pt" viewBox="0 0 497.000000 501.000000"
 preserveAspectRatio="xMidYMid meet">

<g transform="translate(0.000000,501.000000) scale(0.100000,-0.100000)"
fill="#000000" stroke="none">
<path  d="M4725 4135 c-235 -66 -2080 -571 -3555 -974 -608 -166 -1111 -304
-1119 -307 -20 -7 -7 -14 309 -179 266 -139 344 -179 1485 -777 341 -179 901
-473 1245 -653 344 -180 667 -350 718 -377 51 -28 94 -49 96 -47 2 2 94 299
204 659 325 1060 576 1879 698 2280 63 206 119 387 124 403 6 19 6 27 -3 26
-7 -1 -97 -25 -202 -54z m60 -182 c-65 -109 -233 -394 -374 -633 -141 -239
-317 -537 -391 -662 l-135 -228 -40 0 c-44 0 -43 -1 -647 467 -265 206 -272
173 83 368 910 501 1502 828 1554 858 33 18 61 33 63 31 2 -1 -49 -92 -113
-201z m0 158 c-38 -21 -338 -186 -665 -366 -826 -456 -849 -469 -992 -547
-123 -67 -129 -69 -162 -57 -29 11 -38 10 -60 -5 -14 -9 -26 -23 -26 -31 0 -9
-15 -16 -42 -19 -24 -3 -621 -53 -1328 -111 -707 -58 -1300 -107 -1319 -110
-18 -2 -31 -2 -29 1 3 2 490 137 1084 300 1986 543 3308 906 3444 944 74 21
142 38 150 39 8 0 -16 -17 -55 -38z m-20 -437 c-179 -580 -705 -2298 -784
-2556 -36 -119 -68 -215 -71 -212 -2 3 -12 319 -22 702 l-17 696 21 20 c16 15
19 27 15 60 -5 37 0 51 47 131 80 137 699 1186 821 1393 59 100 110 181 112
179 2 -2 -53 -188 -122 -413z m-1876 -626 c18 -21 16 -25 -41 -157 -33 -75
-78 -178 -100 -228 -29 -66 -45 -93 -58 -93 -9 0 -30 -10 -45 -22 l-27 -21
-767 97 c-1354 172 -1695 216 -1700 221 -2 3 11 5 30 6 19 0 610 49 1314 108
704 60 1302 109 1328 110 39 1 52 -3 66 -21z m298 -161 c109 -85 290 -225 403
-312 113 -87 203 -163 202 -169 -2 -6 -5 -22 -6 -35 -3 -22 -59 -51 -522 -268
-285 -134 -611 -286 -722 -339 -112 -52 -205 -94 -206 -92 -2 2 72 175 163
385 153 352 168 383 190 383 52 0 79 60 47 106 -16 22 -26 -7 112 309 59 135
74 161 94 163 12 2 27 8 33 13 5 5 10 9 12 9 2 0 92 -69 200 -153z m-1817
-216 c652 -83 1199 -153 1215 -156 22 -4 34 -15 47 -42 l17 -36 -165 -381
c-91 -210 -167 -382 -169 -384 -1 -1 -231 117 -511 264 -280 147 -774 405
-1098 575 -324 170 -591 311 -595 315 -3 4 12 4 34 1 22 -4 573 -74 1225 -156z
m2438 -353 c7 -9 -45 -117 -183 -378 -186 -352 -194 -365 -226 -372 -19 -3
-42 -16 -51 -28 l-18 -22 -472 68 c-260 37 -477 70 -481 74 -4 4 75 45 175 93
101 47 365 171 588 275 223 105 457 215 520 245 126 61 133 63 148 45z m52
-125 c0 -60 7 -351 15 -648 8 -297 14 -574 14 -615 0 -70 -1 -73 -15 -53 -8
11 -108 145 -221 297 -201 272 -205 277 -193 306 10 25 10 34 -4 54 -15 24
-11 33 160 358 97 183 185 350 195 371 11 20 26 37 34 37 12 0 15 -19 15 -107z
m-1018 -618 c515 -74 498 -71 498 -87 0 -23 34 -48 66 -48 31 0 42 -14 244
-286 117 -157 210 -287 208 -289 -2 -2 -96 45 -208 104 -113 59 -419 219 -680
356 -498 260 -599 315 -588 315 4 0 211 -29 460 -65z"/>
</g>
</svg>
